<?xml version="1.0" encoding="UTF-8" standalone="no"?>
<svg
   xmlns:dc="http://purl.org/dc/elements/1.1/"
   xmlns:cc="http://creativecommons.org/ns#"
   xmlns:rdf="http://www.w3.org/1999/02/22-rdf-syntax-ns#"
   xmlns:svg="http://www.w3.org/2000/svg"
   xmlns="http://www.w3.org/2000/svg"
   xmlns:sodipodi="http://sodipodi.sourceforge.net/DTD/sodipodi-0.dtd"
   xmlns:inkscape="http://www.inkscape.org/namespaces/inkscape"
   viewBox="0 0 512 512"
   style="height: 512px; width: 512px;"
   version="1.1"
   id="svg3733"
   sodipodi:docname="hair.svg"
   inkscape:version="0.92.3 (2405546, 2018-03-11)">
  <metadata
     id="metadata3739">
    <rdf:RDF>
      <cc:Work
         rdf:about="">
        <dc:format>image/svg+xml</dc:format>
        <dc:type
           rdf:resource="http://purl.org/dc/dcmitype/StillImage" />
      </cc:Work>
    </rdf:RDF>
  </metadata>
  <defs
     id="defs3737" />
  <sodipodi:namedview
     pagecolor="#ffffff"
     bordercolor="#666666"
     borderopacity="1"
     objecttolerance="10"
     gridtolerance="10"
     guidetolerance="10"
     inkscape:pageopacity="0"
     inkscape:pageshadow="2"
     inkscape:window-width="2560"
     inkscape:window-height="1377"
     id="namedview3735"
     showgrid="false"
     inkscape:zoom="2.359375"
     inkscape:cx="256"
     inkscape:cy="256"
     inkscape:window-x="-8"
     inkscape:window-y="-8"
     inkscape:window-maximized="1"
     inkscape:current-layer="svg3733" />
  <path
     d="M0 0h512v512H0z"
     fill="#000"
     fill-opacity="0"
     id="path3727" />
  <g
     class=""
     transform="translate(0,0)"
     id="g3731"
     style="touch-action: none;">
    <path
       d="m 256,13.5 c 50.1,0 87.2,18.31 113.2,47.79 26.1,29.48 41.4,69.41 51.6,113.21 18.2,78.2 20.1,169.9 31.5,238.6 -8.5,-12.6 -16.4,-25.2 -23.2,-36.6 -7.5,-63.4 -11.4,-135.8 -25.9,-198 C 393.4,136.3 378.7,99.23 355.8,73.21 332.8,47.19 301.9,31.5 256,31.5 c -45.9,0 -76.8,15.69 -99.8,41.71 -22.9,26.02 -37.6,63.09 -47.4,105.29 -14.51,62.2 -18.31,134.6 -25.91,197.9 -6.8,11.4 -14.7,24 -23.2,36.7 11.3,-68.8 13.4,-160.4 31.5,-238.6 C 101.4,130.7 116.7,90.77 142.8,61.29 168.8,31.81 205.9,13.5 256,13.5 Z m -64,57 v 32 l 26,-16 6,32 32,-16 32,16 6,-32 26,16 v -32 l 42,48 -26,-16 16,32 -32,-16 16,32 -32,-16 v 32 l -32,-16 -16,32 -16,-32 -32,16 v -32 l -32,16 16,-32 -32,16 16,-32 -26,16 z m 122.3,171 c 45.24768,0 0,0 45.24768,0 L 356.8,270.2 c -5.5,50.9 -21.6,88.9 -40.2,115.1 -11.4,16.2 -23.7,28 -34.7,35.5 -11,7.6 -20.9,10.7 -25.9,10.7 -5,0 -14.9,-3.1 -25.9,-10.7 -11,-7.5 -23.3,-19.3 -34.7,-35.5 -18.6,-26.2 -34.7,-64.2 -40.2,-115.1 l -1.9,-28.7 h 44.4 z"
       id="path3729"
       inkscape:connector-curvature="0"
       style="fill:#000000;fill-opacity:1"
       sodipodi:nodetypes="sccccccsccccccsccccccccccccccccccccccccccccccccscccccc" />
  </g>
</svg>
